<svg width="200" height="30" viewBox="0 0 200 30" fill="none" xmlns="http://www.w3.org/2000/svg">
<g clip-path="url(#clip0_5161_7754)">
<path d="M15.9561 8.1263C18.2133 8.1263 20.0431 6.37275 20.0431 4.20964C20.0431 2.04652 18.2133 0.292969 15.9561 0.292969C13.6989 0.292969 11.8691 2.04652 11.8691 4.20964C11.8691 6.37275 13.6989 8.1263 15.9561 8.1263Z" fill="black"/>
<path d="M11.3913 30C10.1304 30 8.86957 29.7917 7.6087 29.4167C6.3913 29.0833 5.17391 28.5833 4.08696 27.9167C3.86957 27.75 3.65217 27.5833 3.3913 27.4583C3.17391 27.2917 3 27.2917 2.82609 27.4583C2.17391 28 1.47826 28.5417 0.826087 29.0833C0.782609 29.125 0.695652 29.2083 0.652174 29.2083C0.565217 29.25 0.434783 29.2917 0.347826 29.25C0.304348 29.25 0.26087 29.125 0.26087 29.0417C0.217391 27.9583 0.173913 26.875 0.173913 25.75C0.130435 23.5417 0.0869565 21.2917 0 19.0417C0 18.8333 0.0434783 18.7083 0.26087 18.7917C0.347826 18.7917 0.434783 18.9167 0.434783 19C0.695652 20.2917 1.17391 21.5417 1.78261 22.7083C2.52174 24.0417 3.43478 25.25 4.56522 26.3333C5.56522 27.25 6.65217 28 7.86957 28.5417C9.65217 29.3333 11.5217 29.5417 13.4348 29.0833C14.6957 28.75 15.3913 27.9167 15.6087 26.75C15.7391 26.2083 15.7826 25.6667 15.7826 25.0833C15.8696 23.8333 15.3478 22.7917 14.4783 21.9167C13.5652 21 12.4348 20.375 11.2609 19.7917C9.86957 19.125 8.43478 18.5417 7 17.875C5.3913 17.125 3.86957 16.2083 2.6087 14.9583C1.43478 13.8333 0.652174 12.5 0.26087 10.9583C0 9.58333 -0.0434783 8.16667 0.304348 6.75C0.869565 4.75 2 3.16667 3.73913 1.95833C4.82609 1.20833 6.04348 0.666667 7.34783 0.333333C8.34783 0.125 9.34783 0 10.3478 0C10.4783 0 10.6087 0 10.6087 0.166667C10.6087 0.333333 10.4783 0.291667 10.3478 0.333333C8.56522 0.458333 7.17391 1.5 6.69565 3.16667C6.43478 4.08333 6.34783 5.04167 6.6087 6C6.82609 6.91667 7.3913 7.66667 8.08696 8.25C9.04348 9.08333 10.2174 9.66667 11.3913 10.1667C12.7391 10.7083 14.087 11.2083 15.3913 11.7917C16.9565 12.4583 18.3913 13.25 19.6522 14.375C21.1739 15.7083 22.0435 17.3333 22.2609 19.3333C22.3913 20.5 22.3478 21.6667 22.087 22.7917C21.6957 24.4167 20.8696 25.8333 19.6087 27C18.3043 28.25 16.7391 29 15 29.5C13.8696 29.8333 12.6522 30 11.3913 30Z" fill="black"/>
<path d="M38.0432 21.5417C36.9128 21.2083 36.1302 20.8333 35.6519 20.4167C35.565 20.3333 35.5215 20.25 35.5215 20.125C35.5215 20 35.565 19.8333 35.6954 19.625C35.8258 19.4167 35.9997 19.125 36.2606 18.7917C36.3476 18.6667 36.478 18.5833 36.6084 18.5833C36.6519 18.5833 36.6954 18.5833 36.7824 18.625C37.7824 19.125 38.6084 19.4167 39.2606 19.5417C39.9128 19.6667 40.6084 19.75 41.3476 19.75C42.0867 19.75 42.6519 19.625 43.0432 19.375C43.478 19.125 43.6519 18.8333 43.6519 18.4167C43.6519 18.0833 43.5215 17.75 43.2171 17.375C43.0432 17.125 42.7389 16.9583 42.3476 16.7917C41.9563 16.625 41.4345 16.4583 40.8258 16.3333C40.7389 16.3333 40.565 16.2917 40.2606 16.2083C39.1302 15.875 38.2171 15.5 37.6084 15.0417C36.9563 14.5833 36.565 14 36.3476 13.3333C36.1737 12.875 36.1302 12.4167 36.1302 12.0417C36.1302 11.3333 36.3041 10.7083 36.6954 10.125C37.0867 9.54167 37.6084 9.08333 38.3476 8.70833C39.0867 8.33333 39.9128 8.08333 40.8693 8C40.9997 8 41.1737 8 41.478 8C42.565 8 43.6084 8.20833 44.6519 8.58333C45.7389 9.125 46.2606 9.54167 46.1302 9.91667C46.0432 10.125 45.8693 10.375 45.6519 10.6667C45.3911 10.9583 45.2606 11.1667 45.1737 11.25C45.1302 11.2917 45.0867 11.3333 44.9997 11.3333C44.8693 11.3333 44.6084 11.25 44.2606 11.0833C43.8258 10.875 43.4345 10.75 43.1302 10.7083C42.478 10.5833 41.9563 10.5 41.5215 10.5C41.0867 10.5 40.6084 10.5833 40.1302 10.7083C39.7824 10.875 39.478 11.0833 39.3041 11.3333C39.0867 11.5833 38.9997 11.8333 38.9997 12.0833C38.9997 12.4583 39.2171 12.7917 39.6084 13.0833C40.0432 13.375 40.5215 13.625 40.9997 13.8333C41.5215 14.0417 42.0432 14.25 42.6954 14.4583C43.3911 14.7083 43.9128 14.9167 44.3476 15.125C44.7824 15.3333 45.0867 15.5833 45.3911 15.9167C45.6519 16.1667 45.9128 16.5417 46.0867 17C46.2606 17.4583 46.3911 17.9167 46.3911 18.375C46.3911 19.125 46.1737 19.7917 45.7389 20.3333C45.3041 20.875 44.7389 21.3333 43.9997 21.625C43.2606 21.9167 42.3911 22.0833 41.4345 22.0833C40.3041 22.0417 39.1737 21.875 38.0432 21.5417Z" fill="black"/>
<path d="M54.9565 19.8733C54.2609 19.1233 53.7391 18.29 53.4348 17.3733L53.3913 17.29C53.1304 16.54 53 15.79 53 14.9983C53 14.165 53.1304 13.3317 53.4348 12.54C53.7391 11.7483 54.1739 10.9983 54.7826 10.3317C55.5652 9.53999 56.3478 8.91499 57.1304 8.49833C57.913 8.08166 58.9565 7.83166 60.1304 7.74833H60.1739C61.3478 7.66499 62.5217 7.87333 63.6522 8.37333C64.3478 8.66499 65.0435 9.12333 65.6956 9.66499C66.3478 10.2483 66.8261 10.8317 67.1304 11.3733C67.7826 12.4983 68.1304 13.7067 68.1304 14.9983C68.1304 15.7483 68 16.4983 67.7826 17.2067C67.5217 17.915 67.1739 18.6233 66.7391 19.2483C66.3913 19.7067 66 20.1233 65.5652 20.4983C65.1304 20.8733 64.6522 21.2067 64.0435 21.4983C62.9565 22.04 61.7826 22.29 60.5217 22.29C59.4348 22.29 58.4348 22.0817 57.4348 21.665C56.4783 21.2483 55.6522 20.6233 54.9565 19.8733ZM64.1739 18.0817C64.5652 17.665 64.8261 17.2483 65 16.8733C65.2609 16.2483 65.4348 15.6233 65.4348 14.9567C65.4348 14.0817 65.1739 13.2067 64.6522 12.4567C64.1304 11.665 63.4348 11.0817 62.5652 10.7067C61.913 10.415 61.2609 10.29 60.5652 10.29C59.9565 10.29 59.3478 10.415 58.7826 10.6233C58.2174 10.8317 57.6956 11.165 57.2609 11.5817L56.913 11.9567C56.5217 12.415 56.2609 12.8733 56.0435 13.415C55.8696 13.915 55.7391 14.4567 55.7391 14.9983C55.7391 15.665 55.8696 16.3317 56.1739 16.9567C56.4783 17.5817 56.913 18.1233 57.4783 18.54C58.3913 19.29 59.4348 19.6233 60.6087 19.6233C61.3913 19.6233 62.1304 19.4567 62.7826 19.1233C63.3478 18.8733 63.8261 18.4983 64.1739 18.0817Z" fill="black"/>
<path d="M75.6963 21.9993C75.6094 21.916 75.6094 21.8327 75.6094 21.7493V8.29102C75.6094 8.20768 75.6529 8.12435 75.6963 8.04102C75.7833 7.95768 75.8702 7.91602 75.9572 7.91602H78.0442C78.1746 7.91602 78.305 7.99935 78.3485 8.12435L81.5659 13.2493C81.5659 13.291 81.6094 13.3327 81.6963 13.3743C81.7398 13.416 81.8268 13.4577 81.9572 13.4577H82.0007C82.0876 13.4577 82.1746 13.416 82.2181 13.3743C82.2616 13.3327 82.305 13.2493 82.305 13.2493L85.5224 8.16602C85.6094 7.99935 85.7398 7.95768 85.8703 7.95768H87.9572C88.0442 7.95768 88.1311 7.99935 88.2181 8.08268C88.305 8.16602 88.305 8.24935 88.305 8.33268V21.791C88.305 21.8743 88.2616 21.9577 88.2181 22.041C88.1311 22.1243 88.0442 22.166 87.9572 22.166H85.8703C85.7398 22.166 85.6529 22.1243 85.6094 22.0827C85.5224 21.9993 85.5224 21.916 85.5224 21.8327V13.666C85.5224 13.541 85.4789 13.4577 85.4355 13.4577C85.392 13.4577 85.305 13.4993 85.2616 13.6243L83.0442 16.666C82.9137 16.8327 82.8268 16.9577 82.6963 16.9993C82.6094 17.041 82.4355 17.0827 82.2181 17.0827H81.8703C81.6094 17.0827 81.4355 17.0827 81.305 17.041C81.2181 16.9993 81.0876 16.916 81.0007 16.791L78.6963 13.666C78.6094 13.541 78.5659 13.4993 78.5224 13.4993C78.4789 13.4993 78.4355 13.541 78.4355 13.666V21.7493C78.4355 21.8327 78.392 21.916 78.3485 21.9993C78.2616 22.0827 78.1746 22.1243 78.0876 22.1243H76.0442C75.8268 22.1243 75.7398 22.0827 75.6963 21.9993Z" fill="black"/>
<path d="M97.3043 21.959C97.2173 21.8757 97.1738 21.7923 97.1738 21.709V8.29232C97.1738 8.16732 97.2173 8.08398 97.3043 8.04232C97.3912 7.95898 97.4782 7.95898 97.5651 7.95898H107.043C107.174 7.95898 107.261 8.00065 107.304 8.04232C107.391 8.12565 107.391 8.20898 107.391 8.29232V10.0007C107.391 10.084 107.348 10.1673 107.304 10.2507C107.217 10.334 107.13 10.3757 107.043 10.3757H100.217C100.13 10.3757 100.043 10.4173 99.9564 10.459C99.8695 10.5423 99.826 10.6257 99.826 10.709V13.8757V13.9173C99.826 14.0423 99.8695 14.1257 99.913 14.1673C99.9564 14.209 100.087 14.2507 100.304 14.2507H105.565C105.652 14.2507 105.739 14.2923 105.826 14.334C105.913 14.3757 105.913 14.459 105.913 14.584V16.2923C105.913 16.3757 105.869 16.459 105.826 16.5423C105.739 16.584 105.652 16.6257 105.565 16.6257H100.261C100.087 16.6257 99.9564 16.6673 99.8695 16.7923C99.826 16.8757 99.7825 17.0007 99.7825 17.1257V19.084C99.7825 19.209 99.826 19.334 99.913 19.4173C99.9999 19.5007 100.13 19.5423 100.391 19.5423H107C107.087 19.5423 107.174 19.584 107.261 19.6673C107.348 19.7507 107.391 19.834 107.391 19.959V21.6673C107.391 21.7507 107.348 21.834 107.304 21.9173C107.217 22.0007 107.13 22.0423 107.043 22.0423H97.5651C97.4782 22.0423 97.3912 22.0007 97.3043 21.959Z" fill="black"/>
<path d="M119.131 22.041C119.087 21.9993 119.044 21.916 119.044 21.8743V10.8327C119.044 10.7077 119 10.5827 118.87 10.4993C118.783 10.416 118.652 10.3327 118.478 10.3327H114.913C114.87 10.3327 114.783 10.291 114.739 10.2493C114.696 10.2077 114.652 10.1243 114.652 10.0827V8.12435C114.652 8.04102 114.696 7.99935 114.739 7.95768C114.783 7.91602 114.87 7.91602 114.913 7.91602H126.087C126.174 7.91602 126.261 7.95768 126.305 7.99935C126.348 8.04102 126.391 8.12435 126.391 8.16602V10.0827C126.391 10.166 126.348 10.2077 126.305 10.2493C126.261 10.291 126.174 10.3327 126.087 10.3327H122.565C122.435 10.3327 122.305 10.3743 122.218 10.4577C122.131 10.541 122.087 10.666 122.087 10.791V21.791C122.087 21.8743 122.044 21.916 122 21.9577C121.957 21.9993 121.87 22.041 121.783 22.041H119.261C119.261 22.1243 119.174 22.0827 119.131 22.041Z" fill="black"/>
<path d="M134.435 22.0417C134.391 22 134.348 21.9167 134.348 21.8333V8.16667C134.348 8.08333 134.391 8 134.435 7.95833C134.478 7.91667 134.565 7.875 134.652 7.875H136.869C136.956 7.875 137.043 7.91667 137.087 7.95833C137.13 8 137.174 8.08333 137.174 8.16667V13.4583C137.174 13.5833 137.217 13.7083 137.304 13.7917C137.391 13.875 137.522 13.9167 137.652 13.9167H141.695C141.826 13.9167 141.913 13.875 142.043 13.7917C142.13 13.7083 142.174 13.5833 142.217 13.4583V8.16667C142.217 8.08333 142.261 8.04167 142.304 7.95833C142.348 7.875 142.435 7.875 142.522 7.875H144.739C144.826 7.875 144.913 7.91667 144.956 7.95833C145 8 145.043 8.08333 145.043 8.16667V21.8333C145.043 21.9167 145 22 144.956 22.0417C144.913 22.0833 144.826 22.125 144.739 22.125H142.522C142.435 22.125 142.348 22.0833 142.304 22.0417C142.261 22 142.217 21.9167 142.217 21.8333V17.125C142.217 17 142.13 16.875 142.043 16.7917C141.956 16.7083 141.826 16.6667 141.695 16.6667H137.652C137.522 16.6667 137.435 16.7083 137.304 16.7917C137.217 16.875 137.174 17 137.13 17.125V21.875C137.13 21.9583 137.087 22 137.043 22.0833C137 22.125 136.913 22.1667 136.826 22.1667H134.609C134.565 22.125 134.478 22.0833 134.435 22.0417Z" fill="black"/>
<path d="M154.74 21.9987C154.653 21.9154 154.609 21.832 154.609 21.7487V8.2487C154.609 8.1237 154.653 8.04037 154.74 7.95703C154.827 7.8737 154.914 7.83203 155.001 7.83203H157.218C157.305 7.83203 157.392 7.8737 157.479 7.95703C157.566 8.04037 157.609 8.1237 157.609 8.2487V21.7487C157.609 21.832 157.566 21.9154 157.522 21.9987C157.435 22.082 157.349 22.1237 157.262 22.1237H155.044C154.914 22.1237 154.827 22.082 154.74 21.9987Z" fill="black"/>
<path d="M167.694 22C167.651 21.9583 167.607 21.875 167.607 21.7917V8.20833C167.607 8.125 167.651 8.04167 167.694 8C167.738 7.95833 167.825 7.91667 167.912 7.91667H170.086C170.173 7.91667 170.26 7.95833 170.303 8.04167L175.347 16.1667C175.52 16.4583 175.651 16.5833 175.738 16.5833C175.868 16.5833 175.912 16.4167 175.912 16.125L175.868 8.16667C175.868 8.08333 175.912 8 175.955 7.95833C175.999 7.91667 176.086 7.875 176.173 7.875H178.39C178.477 7.875 178.564 7.91667 178.607 7.95833C178.651 8 178.694 8.08333 178.694 8.16667V21.75C178.694 21.8333 178.651 21.9167 178.607 21.9583C178.564 22 178.477 22.0417 178.39 22.0417H176.868C176.607 22.0417 176.434 22.0417 176.347 22C176.26 21.9583 176.129 21.8333 176.042 21.6667L170.694 13.5417C170.607 13.4167 170.52 13.375 170.477 13.375C170.347 13.375 170.303 13.4583 170.303 13.6667L170.347 21.7917C170.347 21.875 170.303 21.9583 170.26 22C170.216 22.0417 170.129 22.0833 170.042 22.0833H167.912C167.868 22.0833 167.781 22.0417 167.694 22Z" fill="black"/>
<path d="M190.608 21.3327C189.478 20.666 188.565 19.791 187.869 18.666C187.217 17.541 186.869 16.3327 186.869 14.9994C186.869 13.666 187.217 12.4577 187.869 11.3327C188.521 10.2077 189.434 9.33268 190.608 8.66602C191.739 7.99935 193 7.66602 194.391 7.66602C195.434 7.66602 196.478 7.87435 197.434 8.29102C198.391 8.70768 199.217 9.29102 199.956 10.041C200.043 10.1243 200.087 10.2077 200.087 10.291C200.087 10.3743 200.043 10.4577 199.956 10.541C199.652 10.791 199.347 10.9993 199.087 11.2493C198.782 11.4993 198.565 11.666 198.478 11.7494C198.391 11.8327 198.304 11.8743 198.174 11.8743C198.087 11.8743 198 11.8327 197.913 11.7494C197.478 11.291 196.956 10.916 196.347 10.666C195.739 10.416 195.13 10.291 194.478 10.291C193.608 10.291 192.826 10.4993 192.13 10.916C191.434 11.3327 190.826 11.916 190.391 12.5827C189.956 13.291 189.739 14.041 189.739 14.916C189.739 15.7493 189.956 16.541 190.391 17.2494C190.826 17.9577 191.391 18.4994 192.13 18.916C192.869 19.3327 193.652 19.541 194.478 19.541C195.087 19.541 195.652 19.416 196.217 19.2077C196.782 18.9577 197.304 18.666 197.739 18.2077C197.869 18.0827 198.043 18.041 198.217 18.041C198.347 18.041 198.478 18.0827 198.565 18.166C198.695 18.291 198.913 18.416 199.174 18.6244C199.434 18.8327 199.652 19.041 199.826 19.166C200 19.291 200.043 19.4577 200.043 19.6243C200.043 19.7493 200 19.8327 199.913 19.916C199.217 20.666 198.391 21.2077 197.434 21.5827C196.478 21.9577 195.521 22.166 194.478 22.166C193 22.291 191.739 21.9577 190.608 21.3327Z" fill="black"/>
</g>
<defs>
<clipPath id="clip0_5161_7754">
<rect width="200" height="30" fill="white"/>
</clipPath>
</defs>
</svg>
